{"title":"Ashley 2013 HDRiP XViD SAF","uid":8822337,"size":1567401984,"categoryP":"video","categoryS":"movies","magnet":"?xt=urn:btih:82f59759b6f3a3ebf9fbb27a1ff122f5728a312a&amp;dn=Ashley+2013+HDRiP+XViD+SAF&amp;tr=udp%3A%2F%2Ftracker.openbittorrent.com%3A80&amp;tr=udp%3A%2F%2Fopen.demonii.com%3A1337&amp;tr=udp%3A%2F%2Ftracker.coppersurfer.tk%3A6969&amp;tr=udp%3A%2F%2Fexodus.desync.com%3A6969","seeders":2,"leechers":1,"uploader":"TeX","files":3,"time":1376732304,"description":" &lt;a href=&quot;http://img844.imageshack.us/img844/6277/eofb.jpg&quot; rel=&quot;nofollow&quot; target=&quot;_NEW&quot;&gt;http://img844.imageshack.us/img844/6277/eofb.jpg&lt;/a&gt;\nFormat : AVI\nFormat/Info : Audio Video Interleave\nFile size : 1.44 GiB\nDuration : 1h 30mn\nOverall bit rate : 2 270 Kbps\nWriting application : VirtualDubMod 1.5.10.2 (build 2540/release)\nWriting library : VirtualDubMod build 2540/release\n\nVideo\nID : 0\nFormat : MPEG-4 Visual\nFormat profile : Advanced Simple@L5\nFormat settings, BVOP : 2\nFormat settings, QPel : No\nFormat settings, GMC : No warppoints\nFormat settings, Matrix : Default (H.263)\nMuxing mode : Packed bitstream\nCodec ID : XVID\nCodec ID/Hint : XviD\nDuration : 1h 30mn\nBit rate : 1 876 Kbps\nWidth : 720 pixels\nHeight : 400 pixels\nDisplay aspect ratio : 16:9\nFrame rate : 23.976 fps\nColor space : YUV\nChroma subsampling : 4:2:0\nBit depth : 8 bits\nScan type : Progressive\nCompression mode : Lossy\nBits/(Pixel*Frame) : 0.272\nStream size : 1.19 GiB (83%)\nWriting library : XviD 64\n\nAudio\nID : 1\nFormat : AC-3\nFormat/Info : Audio Coding 3\nMode extension : CM (complete main)\nFormat settings, Endianness : Big\nCodec ID : 2000\nDuration : 1h 30mn\nBit rate mode : Constant\nBit rate : 384 Kbps\nChannel(s) : 6 channels\nChannel positions : Front: L C R, Side: L R, LFE\nSampling rate : 48.0 KHz\nBit depth : 16 bits\nCompression mode : Lossy\nStream size : 249 MiB (17%)\nAlignment : Split accross interleaves\nInterleave, duration : 42 ms (1.00 video frame)\n &lt;a href=&quot;\nhttp://img843.imageshack.us/img843/153/2gac.png&quot; rel=&quot;nofollow&quot; target=&quot;_NEW&quot;&gt;\nhttp://img843.imageshack.us/img843/153/2gac.png&lt;/a&gt; &lt;a href=&quot;\nhttp://img191.imageshack.us/img191/274/6h6p.png&quot; rel=&quot;nofollow&quot; target=&quot;_NEW&quot;&gt;\nhttp://img191.imageshack.us/img191/274/6h6p.png&lt;/a&gt;\n\n","torrent":{"xt":"urn:btih:82f59759b6f3a3ebf9fbb27a1ff122f5728a312a","amp;dn":"Ashley+2013+HDRiP+XViD+SAF","amp;tr":["udp%3A%2F%2Ftracker.openbittorrent.com%3A80","udp%3A%2F%2Fopen.demonii.com%3A1337","udp%3A%2F%2Ftracker.coppersurfer.tk%3A6969","udp%3A%2F%2Fexodus.desync.com%3A6969"],"infoHash":"82f59759b6f3a3ebf9fbb27a1ff122f5728a312a","infoHashBuffer":{"type":"Buffer","data":[130,245,151,89,182,243,163,235,249,251,178,122,31,241,34,245,114,138,49,42]},"announce":[],"urlList":[]}}